<svg xmlns="http://www.w3.org/2000/svg" width="400" height="510" viewBox="0 0 400 510" data-palette="84e656-6ae785-dff6ac-e6f4ea6ab99c" role="img" aria-labelledby="hero-mobile-dark-title hero-mobile-dark-desc"><title id="hero-mobile-dark-title">AgentBeacon</title><desc id="hero-mobile-dark-desc">Turn observed browser-run states into notification signals.</desc><defs><linearGradient id="brand" gradientUnits="userSpaceOnUse" x2="400" y2="510"><stop stop-color="#84e656"/><stop offset=".6" stop-color="#6ae785"/><stop offset="1" stop-color="#dff6ac"/></linearGradient><radialGradient id="halo"><stop stop-color="#84e656" stop-opacity=".22"/><stop offset="1" stop-color="#070c0d" stop-opacity="0"/></radialGradient><filter id="glow"><feGaussianBlur stdDeviation="5"/></filter><pattern id="grid" width="40" height="40" patternUnits="userSpaceOnUse"><path d="M40 0H0V40" fill="none" stroke="#223c1d" stroke-opacity=".35" stroke-width=".6"/></pattern><marker id="arrow" viewBox="0 0 10 10" refX="8" refY="5" markerWidth="5" markerHeight="5" orient="auto"><path d="m1 1 7 4-7 4" fill="none" stroke="#84e656" stroke-width="1.5"/></marker></defs><style>text{font-family:Arial,"Noto Sans",sans-serif}.flow{stroke-dasharray:10 110;animation:flow 6s linear infinite}.pulse{animation:pulse 5s ease-in-out infinite}.turn{transform-box:fill-box;transform-origin:center;animation:turn 36s linear infinite}@keyframes flow{to{stroke-dashoffset:-360}}@keyframes pulse{0%,100%{opacity:.45}50%{opacity:1}}@keyframes turn{to{transform:rotate(360deg)}}@media(prefers-reduced-motion:reduce){*{animation:none!important;transform:none!important}.flow{display:none}}</style><rect width="400" height="510" rx="16" fill="#070c0d"/><rect width="400" height="510" rx="16" fill="url(#grid)"/><ellipse cx="252.0" cy="219.29999999999998" rx="200.0" ry="357.0" fill="url(#halo)"/><circle cx="132.59" cy="257.77" r="0.61" fill="#6ae785" opacity="0.52"/><circle cx="426.97" cy="375.73" r="0.85" fill="#84e656" opacity="0.36"/><circle cx="428.47" cy="409.97" r="1.23" fill="#84e656" opacity="0.59"/><circle cx="205.68" cy="495.82" r="0.66" fill="#6ae785" opacity="0.52"/><circle cx="243.77" cy="264.06" r="1.67" fill="#84e656" opacity="0.53"/><circle cx="128.90" cy="436.90" r="0.78" fill="#84e656" opacity="0.43"/><circle cx="333.96" cy="427.77" r="0.65" fill="#6ae785" opacity="0.35"/><circle cx="250.20" cy="335.13" r="0.79" fill="#84e656" opacity="0.51"/><circle cx="255.96" cy="223.58" r="0.73" fill="#84e656" opacity="0.47"/><circle cx="117.74" cy="291.22" r="1.69" fill="#6ae785" opacity="0.66"/><circle cx="154.48" cy="343.58" r="1.10" fill="#84e656" opacity="0.43"/><circle cx="426.24" cy="338.73" r="1.18" fill="#84e656" opacity="0.32"/><circle cx="279.80" cy="243.75" r="0.72" fill="#6ae785" opacity="0.39"/><circle cx="106.19" cy="434.75" r="1.13" fill="#84e656" opacity="0.41"/><circle cx="97.72" cy="445.38" r="1.47" fill="#84e656" opacity="0.56"/><circle cx="300.56" cy="230.39" r="1.23" fill="#6ae785" opacity="0.33"/><circle cx="222.76" cy="224.13" r="0.89" fill="#84e656" opacity="0.73"/><circle cx="338.28" cy="485.46" r="1.24" fill="#84e656" opacity="0.58"/><circle cx="242.78" cy="263.78" r="0.87" fill="#6ae785" opacity="0.50"/><circle cx="418.75" cy="422.38" r="1.21" fill="#84e656" opacity="0.55"/><circle cx="228.83" cy="239.75" r="0.83" fill="#84e656" opacity="0.73"/><circle cx="137.38" cy="378.60" r="1.70" fill="#6ae785" opacity="0.39"/><circle cx="137.66" cy="254.72" r="0.83" fill="#84e656" opacity="0.42"/><circle cx="207.86" cy="396.75" r="1.65" fill="#84e656" opacity="0.39"/><circle cx="240.66" cy="222.48" r="1.61" fill="#6ae785" opacity="0.32"/><circle cx="435.42" cy="340.87" r="0.83" fill="#84e656" opacity="0.56"/><circle cx="146.90" cy="425.13" r="1.53" fill="#84e656" opacity="0.73"/><circle cx="384.07" cy="308.87" r="1.19" fill="#6ae785" opacity="0.25"/><circle cx="92.66" cy="440.24" r="1.57" fill="#84e656" opacity="0.25"/><circle cx="153.08" cy="258.29" r="1.26" fill="#84e656" opacity="0.24"/><circle cx="107.92" cy="430.23" r="0.76" fill="#6ae785" opacity="0.42"/><circle cx="100.65" cy="411.12" r="0.98" fill="#84e656" opacity="0.23"/><circle cx="135.29" cy="456.32" r="0.79" fill="#84e656" opacity="0.80"/><circle cx="65.20" cy="365.86" r="1.43" fill="#6ae785" opacity="0.78"/><circle cx="116.04" cy="373.63" r="0.76" fill="#84e656" opacity="0.61"/><circle cx="97.88" cy="278.38" r="0.98" fill="#84e656" opacity="0.68"/><circle cx="437.13" cy="360.48" r="1.21" fill="#6ae785" opacity="0.64"/><circle cx="347.18" cy="439.45" r="1.02" fill="#84e656" opacity="0.43"/><circle cx="437.09" cy="384.41" r="1.37" fill="#84e656" opacity="0.80"/><circle cx="301.87" cy="274.84" r="1.38" fill="#6ae785" opacity="0.31"/><circle cx="282.70" cy="312.42" r="0.75" fill="#84e656" opacity="0.23"/><circle cx="431.66" cy="396.43" r="1.21" fill="#84e656" opacity="0.78"/><circle cx="390.90" cy="336.34" r="0.61" fill="#6ae785" opacity="0.42"/><circle cx="151.27" cy="249.45" r="1.39" fill="#84e656" opacity="0.56"/><circle cx="253.64" cy="496.90" r="1.57" fill="#84e656" opacity="0.66"/><circle cx="91.85" cy="366.65" r="1.22" fill="#6ae785" opacity="0.71"/><circle cx="240.45" cy="496.94" r="0.91" fill="#84e656" opacity="0.62"/><circle cx="415.46" cy="373.80" r="1.20" fill="#84e656" opacity="0.64"/><circle cx="350.46" cy="367.29" r="1.51" fill="#6ae785" opacity="0.34"/><circle cx="360.94" cy="255.36" r="1.56" fill="#84e656" opacity="0.20"/><circle cx="221.35" cy="276.15" r="1.30" fill="#84e656" opacity="0.35"/><circle cx="353.20" cy="246.60" r="1.68" fill="#6ae785" opacity="0.58"/><circle cx="79.25" cy="319.83" r="1.56" fill="#84e656" opacity="0.66"/><circle cx="323.23" cy="469.83" r="1.53" fill="#84e656" opacity="0.53"/><circle cx="80.21" cy="423.68" r="1.07" fill="#6ae785" opacity="0.21"/><circle cx="130.84" cy="465.85" r="1.57" fill="#84e656" opacity="0.79"/><circle cx="181.61" cy="447.77" r="0.87" fill="#84e656" opacity="0.25"/><circle cx="221.62" cy="423.97" r="1.44" fill="#6ae785" opacity="0.61"/><circle cx="434.34" cy="330.73" r="0.96" fill="#84e656" opacity="0.23"/><circle cx="359.67" cy="318.50" r="0.67" fill="#84e656" opacity="0.68"/><circle cx="167.18" cy="388.70" r="0.67" fill="#6ae785" opacity="0.28"/><circle cx="331.19" cy="336.67" r="0.75" fill="#84e656" opacity="0.21"/><circle cx="122.47" cy="441.54" r="0.61" fill="#84e656" opacity="0.73"/><circle cx="344.92" cy="258.38" r="0.78" fill="#6ae785" opacity="0.56"/><circle cx="285.95" cy="352.71" r="1.68" fill="#84e656" opacity="0.37"/><circle cx="413.45" cy="421.47" r="1.52" fill="#84e656" opacity="0.58"/><circle cx="386.16" cy="289.43" r="0.93" fill="#6ae785" opacity="0.56"/><circle cx="205.32" cy="247.55" r="1.12" fill="#84e656" opacity="0.31"/><circle cx="111.33" cy="414.28" r="1.06" fill="#84e656" opacity="0.49"/><circle cx="299.20" cy="393.34" r="1.28" fill="#6ae785" opacity="0.32"/><circle cx="354.89" cy="283.55" r="0.85" fill="#84e656" opacity="0.61"/><circle cx="133.34" cy="331.62" r="1.55" fill="#84e656" opacity="0.59"/><circle cx="151.60" cy="429.71" r="1.07" fill="#6ae785" opacity="0.71"/><circle cx="380.53" cy="299.19" r="1.60" fill="#84e656" opacity="0.35"/><circle cx="437.61" cy="342.29" r="1.42" fill="#84e656" opacity="0.38"/><circle cx="401.29" cy="446.68" r="0.85" fill="#6ae785" opacity="0.31"/><circle cx="196.81" cy="450.45" r="0.70" fill="#84e656" opacity="0.75"/><circle cx="375.07" cy="269.71" r="1.67" fill="#84e656" opacity="0.31"/><circle cx="335.60" cy="237.98" r="0.67" fill="#6ae785" opacity="0.50"/><circle cx="86.88" cy="350.09" r="1.68" fill="#84e656" opacity="0.58"/><circle cx="166.05" cy="415.86" r="1.16" fill="#84e656" opacity="0.22"/><circle cx="93.35" cy="316.36" r="0.95" fill="#6ae785" opacity="0.40"/><circle cx="68.82" cy="362.44" r="1.64" fill="#84e656" opacity="0.77"/><circle cx="368.64" cy="471.22" r="0.96" fill="#84e656" opacity="0.42"/><circle cx="360.87" cy="248.37" r="1.63" fill="#6ae785" opacity="0.75"/><circle cx="267.76" cy="443.52" r="0.74" fill="#84e656" opacity="0.41"/><circle cx="125.40" cy="344.63" r="1.34" fill="#84e656" opacity="0.32"/><circle cx="246.97" cy="360.27" r="1.43" fill="#6ae785" opacity="0.59"/><circle cx="234.48" cy="280.01" r="0.74" fill="#84e656" opacity="0.27"/><circle cx="283.85" cy="314.60" r="1.27" fill="#84e656" opacity="0.69"/><circle cx="254.01" cy="248.73" r="1.57" fill="#6ae785" opacity="0.44"/><circle cx="303.95" cy="455.32" r="1.22" fill="#84e656" opacity="0.45"/><circle cx="137.61" cy="465.08" r="0.88" fill="#84e656" opacity="0.56"/><circle cx="379.20" cy="446.82" r="1.45" fill="#6ae785" opacity="0.66"/><circle cx="120.25" cy="455.47" r="0.96" fill="#84e656" opacity="0.58"/><circle cx="205.24" cy="437.18" r="1.01" fill="#84e656" opacity="0.71"/><circle cx="223.18" cy="490.17" r="1.08" fill="#6ae785" opacity="0.67"/><circle cx="435.64" cy="337.59" r="0.93" fill="#84e656" opacity="0.45"/><circle cx="437.48" cy="383.81" r="1.43" fill="#84e656" opacity="0.35"/><circle cx="81.56" cy="301.87" r="1.45" fill="#6ae785" opacity="0.73"/><circle cx="113.32" cy="311.18" r="0.79" fill="#84e656" opacity="0.48"/><circle cx="182.32" cy="324.66" r="1.57" fill="#84e656" opacity="0.32"/><circle cx="167.68" cy="282.29" r="1.51" fill="#6ae785" opacity="0.47"/><circle cx="313.51" cy="491.48" r="1.06" fill="#84e656" opacity="0.30"/><circle cx="385.46" cy="419.85" r="1.32" fill="#84e656" opacity="0.35"/><circle cx="221.56" cy="235.49" r="1.09" fill="#6ae785" opacity="0.77"/><circle cx="433.28" cy="355.37" r="1.67" fill="#84e656" opacity="0.57"/><circle cx="241.08" cy="289.94" r="0.83" fill="#84e656" opacity="0.55"/><circle cx="356.34" cy="348.76" r="1.62" fill="#6ae785" opacity="0.56"/><circle cx="169.79" cy="488.76" r="1.44" fill="#84e656" opacity="0.21"/><circle cx="299.57" cy="226.99" r="0.64" fill="#84e656" opacity="0.51"/><circle cx="410.12" cy="302.50" r="0.77" fill="#6ae785" opacity="0.57"/><circle cx="234.68" cy="246.54" r="1.56" fill="#84e656" opacity="0.68"/><circle cx="398.80" cy="448.16" r="1.00" fill="#84e656" opacity="0.56"/><circle cx="241.60" cy="449.75" r="1.12" fill="#6ae785" opacity="0.48"/><circle cx="155.83" cy="421.23" r="0.92" fill="#84e656" opacity="0.70"/><circle cx="161.25" cy="325.32" r="0.75" fill="#84e656" opacity="0.27"/><circle cx="214.84" cy="239.25" r="1.43" fill="#6ae785" opacity="0.66"/><circle cx="425.39" cy="321.26" r="1.59" fill="#84e656" opacity="0.22"/><circle cx="195.88" cy="227.83" r="1.51" fill="#84e656" opacity="0.65"/><circle cx="105.51" cy="276.60" r="0.99" fill="#6ae785" opacity="0.22"/><circle cx="264.11" cy="456.89" r="1.28" fill="#84e656" opacity="0.27"/><circle cx="136.78" cy="390.85" r="0.79" fill="#84e656" opacity="0.32"/><circle cx="375.81" cy="321.52" r="1.02" fill="#6ae785" opacity="0.45"/><circle cx="80.76" cy="377.00" r="1.60" fill="#84e656" opacity="0.30"/><circle cx="143.31" cy="248.92" r="1.10" fill="#84e656" opacity="0.48"/><circle cx="124.87" cy="368.06" r="1.48" fill="#6ae785" opacity="0.54"/><circle cx="117.65" cy="276.55" r="0.63" fill="#84e656" opacity="0.67"/><circle cx="366.67" cy="379.39" r="0.76" fill="#84e656" opacity="0.74"/><circle cx="68.42" cy="385.09" r="1.35" fill="#6ae785" opacity="0.22"/><circle cx="122.91" cy="464.72" r="0.77" fill="#84e656" opacity="0.65"/><circle cx="166.50" cy="436.33" r="0.99" fill="#84e656" opacity="0.63"/><circle cx="280.91" cy="266.62" r="0.95" fill="#6ae785" opacity="0.54"/><circle cx="254.11" cy="287.17" r="1.25" fill="#84e656" opacity="0.74"/><circle cx="274.36" cy="365.70" r="1.12" fill="#84e656" opacity="0.56"/><circle cx="100.70" cy="361.08" r="1.10" fill="#6ae785" opacity="0.70"/><circle cx="297.98" cy="420.43" r="1.35" fill="#84e656" opacity="0.75"/><circle cx="318.69" cy="464.38" r="0.70" fill="#84e656" opacity="0.27"/><circle cx="218.83" cy="259.83" r="0.60" fill="#6ae785" opacity="0.53"/><circle cx="314.79" cy="484.06" r="0.72" fill="#84e656" opacity="0.37"/><circle cx="252.09" cy="367.43" r="1.43" fill="#84e656" opacity="0.28"/><circle cx="117.54" cy="428.80" r="1.17" fill="#6ae785" opacity="0.72"/><circle cx="130.05" cy="462.30" r="1.32" fill="#84e656" opacity="0.43"/><circle cx="265.36" cy="222.90" r="1.33" fill="#84e656" opacity="0.69"/><circle cx="136.65" cy="472.86" r="0.91" fill="#6ae785" opacity="0.20"/><circle cx="350.49" cy="393.09" r="0.84" fill="#84e656" opacity="0.33"/><circle cx="144.90" cy="393.62" r="0.77" fill="#84e656" opacity="0.41"/><circle cx="383.39" cy="375.47" r="0.98" fill="#6ae785" opacity="0.44"/><circle cx="392.69" cy="369.45" r="0.74" fill="#84e656" opacity="0.32"/><circle cx="359.61" cy="335.35" r="1.63" fill="#84e656" opacity="0.38"/><circle cx="79.24" cy="385.52" r="1.38" fill="#6ae785" opacity="0.63"/><circle cx="425.73" cy="363.03" r="0.72" fill="#84e656" opacity="0.40"/><circle cx="111.97" cy="278.66" r="0.80" fill="#84e656" opacity="0.76"/><circle cx="410.48" cy="300.50" r="1.64" fill="#6ae785" opacity="0.62"/><circle cx="434.21" cy="327.74" r="0.90" fill="#84e656" opacity="0.65"/><circle cx="135.20" cy="253.60" r="1.22" fill="#84e656" opacity="0.31"/><circle cx="127.41" cy="256.86" r="1.41" fill="#6ae785" opacity="0.55"/><circle cx="244.60" cy="426.92" r="1.44" fill="#84e656" opacity="0.62"/><circle cx="181.19" cy="304.94" r="0.92" fill="#84e656" opacity="0.58"/><circle cx="329.20" cy="390.01" r="1.45" fill="#6ae785" opacity="0.25"/><circle cx="279.51" cy="408.24" r="0.72" fill="#84e656" opacity="0.42"/><circle cx="425.49" cy="378.07" r="1.05" fill="#84e656" opacity="0.33"/><circle cx="437.31" cy="368.83" r="1.01" fill="#6ae785" opacity="0.24"/><circle cx="283.51" cy="388.01" r="0.95" fill="#84e656" opacity="0.37"/><circle cx="145.08" cy="440.31" r="1.57" fill="#84e656" opacity="0.44"/><circle cx="392.54" cy="454.07" r="1.01" fill="#6ae785" opacity="0.71"/><circle cx="152.55" cy="356.89" r="0.69" fill="#84e656" opacity="0.28"/><circle cx="164.41" cy="362.10" r="0.87" fill="#84e656" opacity="0.79"/><circle cx="310.16" cy="344.94" r="0.68" fill="#6ae785" opacity="0.75"/><circle cx="80.88" cy="376.71" r="1.24" fill="#84e656" opacity="0.22"/><circle cx="284.05" cy="270.33" r="1.34" fill="#84e656" opacity="0.69"/><circle cx="335.96" cy="475.36" r="1.49" fill="#6ae785" opacity="0.53"/><circle cx="176.65" cy="418.98" r="1.64" fill="#84e656" opacity="0.30"/><circle cx="164.84" cy="269.17" r="1.67" fill="#84e656" opacity="0.56"/><circle cx="133.33" cy="387.39" r="1.21" fill="#6ae785" opacity="0.70"/><circle cx="203.09" cy="236.68" r="1.24" fill="#84e656" opacity="0.28"/><circle cx="296.84" cy="497.09" r="1.50" fill="#84e656" opacity="0.60"/><circle cx="177.16" cy="473.47" r="1.12" fill="#6ae785" opacity="0.73"/><circle cx="80.75" cy="305.83" r="0.70" fill="#84e656" opacity="0.58"/><circle cx="220.57" cy="223.83" r="0.89" fill="#84e656" opacity="0.60"/><circle cx="395.39" cy="339.18" r="0.78" fill="#6ae785" opacity="0.54"/><circle cx="166.40" cy="244.43" r="0.91" fill="#84e656" opacity="0.60"/><circle cx="411.05" cy="289.56" r="1.39" fill="#84e656" opacity="0.59"/><circle cx="152.91" cy="308.01" r="0.89" fill="#6ae785" opacity="0.42"/><circle cx="257.18" cy="419.26" r="1.26" fill="#84e656" opacity="0.23"/><circle cx="230.95" cy="496.70" r="1.27" fill="#84e656" opacity="0.41"/><circle cx="80.09" cy="307.27" r="0.94" fill="#6ae785" opacity="0.50"/><circle cx="177.27" cy="453.03" r="1.55" fill="#84e656" opacity="0.47"/><circle cx="152.49" cy="479.77" r="1.06" fill="#84e656" opacity="0.27"/><circle cx="182.07" cy="233.40" r="1.50" fill="#6ae785" opacity="0.30"/><circle cx="127.62" cy="454.67" r="0.80" fill="#84e656" opacity="0.70"/><circle cx="326.47" cy="237.86" r="1.17" fill="#84e656" opacity="0.31"/><circle cx="165.47" cy="238.53" r="0.92" fill="#6ae785" opacity="0.51"/><circle cx="227.20" cy="249.74" r="1.31" fill="#84e656" opacity="0.68"/><circle cx="155.85" cy="479.29" r="1.47" fill="#84e656" opacity="0.31"/><circle cx="334.14" cy="254.46" r="1.60" fill="#6ae785" opacity="0.25"/><circle cx="75.98" cy="350.70" r="0.79" fill="#84e656" opacity="0.75"/><circle cx="275.86" cy="266.85" r="1.70" fill="#84e656" opacity="0.42"/><circle cx="166.58" cy="487.78" r="0.95" fill="#6ae785" opacity="0.21"/><circle cx="241.28" cy="499.25" r="0.84" fill="#84e656" opacity="0.75"/><circle cx="236.08" cy="456.67" r="1.50" fill="#84e656" opacity="0.42"/><circle cx="288.65" cy="379.05" r="1.65" fill="#6ae785" opacity="0.53"/><circle cx="389.88" cy="271.30" r="1.20" fill="#84e656" opacity="0.60"/><circle cx="132.26" cy="453.22" r="1.27" fill="#84e656" opacity="0.45"/><circle cx="408.27" cy="420.78" r="1.67" fill="#6ae785" opacity="0.48"/><circle cx="396.69" cy="331.52" r="1.23" fill="#84e656" opacity="0.50"/><circle cx="325.32" cy="397.61" r="0.82" fill="#84e656" opacity="0.24"/><circle cx="367.89" cy="253.22" r="0.64" fill="#6ae785" opacity="0.78"/><circle cx="224.64" cy="349.29" r="0.89" fill="#84e656" opacity="0.51"/><circle cx="353.99" cy="245.05" r="0.69" fill="#84e656" opacity="0.46"/><circle cx="109.97" cy="316.89" r="1.37" fill="#6ae785" opacity="0.30"/><circle cx="287.66" cy="259.20" r="0.73" fill="#84e656" opacity="0.32"/><circle cx="130.12" cy="458.64" r="1.13" fill="#84e656" opacity="0.46"/><circle cx="243.68" cy="339.47" r="0.61" fill="#6ae785" opacity="0.27"/><circle cx="204.26" cy="331.30" r="1.62" fill="#84e656" opacity="0.59"/><circle cx="283.23" cy="496.02" r="0.79" fill="#84e656" opacity="0.33"/><circle cx="349.78" cy="419.12" r="1.46" fill="#6ae785" opacity="0.56"/><circle cx="146.55" cy="290.28" r="0.94" fill="#84e656" opacity="0.52"/><circle cx="123.53" cy="448.93" r="1.27" fill="#84e656" opacity="0.63"/><circle cx="79.54" cy="416.82" r="1.03" fill="#6ae785" opacity="0.75"/><circle cx="212.43" cy="489.67" r="0.96" fill="#84e656" opacity="0.65"/><circle cx="378.57" cy="464.56" r="0.94" fill="#84e656" opacity="0.80"/><circle cx="435.44" cy="380.81" r="0.73" fill="#6ae785" opacity="0.31"/><circle cx="235.96" cy="262.37" r="1.29" fill="#84e656" opacity="0.71"/><circle cx="138.76" cy="474.78" r="1.37" fill="#84e656" opacity="0.39"/><circle cx="359.52" cy="451.19" r="1.27" fill="#6ae785" opacity="0.34"/><circle cx="183.63" cy="273.38" r="0.80" fill="#84e656" opacity="0.55"/><circle cx="282.08" cy="258.36" r="1.46" fill="#84e656" opacity="0.24"/><circle cx="297.16" cy="484.13" r="1.14" fill="#6ae785" opacity="0.72"/><circle cx="170.16" cy="244.25" r="1.70" fill="#84e656" opacity="0.45"/><circle cx="118.92" cy="351.90" r="1.64" fill="#84e656" opacity="0.29"/><circle cx="124.99" cy="262.07" r="1.25" fill="#6ae785" opacity="0.74"/><circle cx="76.22" cy="359.88" r="1.29" fill="#84e656" opacity="0.61"/><circle cx="89.35" cy="436.00" r="0.64" fill="#84e656" opacity="0.30"/><circle cx="226.91" cy="259.91" r="1.12" fill="#6ae785" opacity="0.34"/><circle cx="233.97" cy="277.81" r="1.06" fill="#84e656" opacity="0.59"/><circle cx="424.69" cy="349.24" r="1.63" fill="#84e656" opacity="0.44"/><circle cx="156.36" cy="240.88" r="0.62" fill="#6ae785" opacity="0.20"/><circle cx="434.11" cy="350.40" r="1.48" fill="#84e656" opacity="0.63"/><circle cx="320.30" cy="291.47" r="1.25" fill="#84e656" opacity="0.52"/><circle cx="146.99" cy="416.78" r="1.24" fill="#6ae785" opacity="0.48"/><circle cx="152.28" cy="473.98" r="1.03" fill="#84e656" opacity="0.66"/><circle cx="432.96" cy="333.84" r="0.93" fill="#84e656" opacity="0.35"/><circle cx="171.99" cy="489.65" r="1.42" fill="#6ae785" opacity="0.70"/><circle cx="301.89" cy="468.84" r="1.02" fill="#84e656" opacity="0.33"/><circle cx="343.74" cy="284.16" r="1.00" fill="#84e656" opacity="0.66"/><circle cx="301.32" cy="495.21" r="1.35" fill="#6ae785" opacity="0.24"/><circle cx="129.87" cy="434.18" r="1.53" fill="#84e656" opacity="0.64"/><circle cx="161.74" cy="485.74" r="1.54" fill="#84e656" opacity="0.55"/><circle cx="394.30" cy="288.06" r="0.79" fill="#6ae785" opacity="0.42"/><circle cx="111.07" cy="335.11" r="1.07" fill="#84e656" opacity="0.38"/><circle cx="136.84" cy="448.12" r="1.63" fill="#84e656" opacity="0.60"/><circle cx="304.20" cy="496.18" r="0.98" fill="#6ae785" opacity="0.37"/><circle cx="346.09" cy="450.69" r="1.20" fill="#84e656" opacity="0.21"/><circle cx="436.81" cy="336.44" r="0.93" fill="#84e656" opacity="0.58"/><circle cx="416.17" cy="354.42" r="0.85" fill="#6ae785" opacity="0.62"/><circle cx="434.54" cy="387.83" r="1.16" fill="#84e656" opacity="0.28"/><circle cx="76.35" cy="339.89" r="1.19" fill="#84e656" opacity="0.56"/><circle cx="164.68" cy="408.40" r="1.10" fill="#6ae785" opacity="0.56"/><circle cx="196.37" cy="288.25" r="1.19" fill="#84e656" opacity="0.63"/><circle cx="135.26" cy="351.35" r="1.56" fill="#84e656" opacity="0.40"/><circle cx="344.81" cy="251.56" r="1.39" fill="#6ae785" opacity="0.50"/><circle cx="426.35" cy="364.05" r="1.50" fill="#84e656" opacity="0.36"/><circle cx="161.28" cy="431.13" r="1.10" fill="#84e656" opacity="0.67"/><circle cx="103.02" cy="420.78" r="0.89" fill="#6ae785" opacity="0.33"/><circle cx="235.94" cy="453.47" r="1.40" fill="#84e656" opacity="0.39"/><circle cx="80.78" cy="422.33" r="0.93" fill="#84e656" opacity="0.64"/><circle cx="155.94" cy="334.77" r="0.80" fill="#6ae785" opacity="0.77"/><circle cx="202.07" cy="291.42" r="0.97" fill="#84e656" opacity="0.22"/><circle cx="68.10" cy="322.06" r="1.55" fill="#84e656" opacity="0.75"/><circle cx="152.00" cy="285.48" r="1.67" fill="#6ae785" opacity="0.67"/><circle cx="337.77" cy="241.06" r="1.49" fill="#84e656" opacity="0.74"/><circle cx="94.21" cy="281.96" r="0.78" fill="#84e656" opacity="0.49"/><circle cx="402.85" cy="323.24" r="1.37" fill="#6ae785" opacity="0.56"/><circle cx="393.07" cy="285.49" r="1.57" fill="#84e656" opacity="0.65"/><circle cx="332.86" cy="464.57" r="1.35" fill="#84e656" opacity="0.31"/><circle cx="330.08" cy="380.35" r="1.07" fill="#6ae785" opacity="0.71"/><circle cx="352.95" cy="447.84" r="0.87" fill="#84e656" opacity="0.25"/><circle cx="312.40" cy="406.49" r="0.96" fill="#84e656" opacity="0.36"/><circle cx="266.42" cy="332.58" r="0.69" fill="#6ae785" opacity="0.45"/><circle cx="358.18" cy="381.35" r="0.88" fill="#84e656" opacity="0.80"/><circle cx="90.28" cy="291.36" r="1.06" fill="#84e656" opacity="0.45"/><circle cx="209.15" cy="477.22" r="0.86" fill="#6ae785" opacity="0.28"/><circle cx="428.22" cy="388.87" r="1.01" fill="#84e656" opacity="0.66"/><circle cx="341.66" cy="241.35" r="1.12" fill="#84e656" opacity="0.74"/><circle cx="217.09" cy="224.82" r="1.32" fill="#6ae785" opacity="0.37"/><circle cx="152.72" cy="312.74" r="1.51" fill="#84e656" opacity="0.53"/><circle cx="353.62" cy="358.18" r="1.47" fill="#84e656" opacity="0.56"/><circle cx="326.25" cy="322.92" r="1.57" fill="#6ae785" opacity="0.57"/><circle cx="421.48" cy="421.37" r="0.82" fill="#84e656" opacity="0.45"/><circle cx="296.18" cy="497.27" r="0.66" fill="#84e656" opacity="0.24"/><circle cx="358.97" cy="390.94" r="1.54" fill="#6ae785" opacity="0.48"/><circle cx="72.18" cy="325.19" r="1.04" fill="#84e656" opacity="0.29"/><circle cx="129.59" cy="437.63" r="1.41" fill="#84e656" opacity="0.67"/><circle cx="243.67" cy="313.32" r="1.05" fill="#6ae785" opacity="0.33"/><circle cx="332.94" cy="298.34" r="0.98" fill="#84e656" opacity="0.25"/><circle cx="428.37" cy="408.15" r="1.37" fill="#84e656" opacity="0.41"/><circle cx="140.56" cy="401.08" r="1.12" fill="#6ae785" opacity="0.37"/><circle cx="362.53" cy="270.04" r="0.99" fill="#84e656" opacity="0.23"/><circle cx="213.17" cy="494.28" r="1.46" fill="#84e656" opacity="0.76"/><circle cx="397.32" cy="448.37" r="1.22" fill="#6ae785" opacity="0.66"/><circle cx="215.26" cy="499.55" r="0.72" fill="#84e656" opacity="0.29"/><circle cx="241.02" cy="481.13" r="0.73" fill="#84e656" opacity="0.70"/><circle cx="369.78" cy="285.09" r="0.78" fill="#6ae785" opacity="0.52"/><circle cx="281.63" cy="373.47" r="1.02" fill="#84e656" opacity="0.56"/><circle cx="261.50" cy="256.86" r="1.57" fill="#84e656" opacity="0.41"/><circle cx="368.12" cy="466.94" r="1.45" fill="#6ae785" opacity="0.44"/><circle cx="184.38" cy="454.13" r="0.89" fill="#84e656" opacity="0.62"/><circle cx="107.64" cy="284.32" r="1.63" fill="#84e656" opacity="0.40"/><circle cx="243.20" cy="229.19" r="1.01" fill="#6ae785" opacity="0.27"/><circle cx="204.26" cy="495.26" r="1.50" fill="#84e656" opacity="0.35"/><circle cx="383.18" cy="453.66" r="1.23" fill="#84e656" opacity="0.21"/><circle cx="297.11" cy="365.89" r="0.98" fill="#6ae785" opacity="0.46"/><circle cx="408.09" cy="308.78" r="0.69" fill="#84e656" opacity="0.62"/><circle cx="207.18" cy="388.23" r="1.58" fill="#84e656" opacity="0.34"/><circle cx="118.49" cy="280.35" r="0.81" fill="#6ae785" opacity="0.44"/><circle cx="338.94" cy="466.46" r="1.34" fill="#84e656" opacity="0.45"/><circle cx="194.64" cy="253.08" r="0.68" fill="#84e656" opacity="0.59"/><circle cx="413.76" cy="430.55" r="1.52" fill="#6ae785" opacity="0.49"/><circle cx="202.24" cy="448.33" r="1.43" fill="#84e656" opacity="0.68"/><circle cx="300.93" cy="486.86" r="1.41" fill="#84e656" opacity="0.32"/><circle cx="85.37" cy="323.92" r="1.06" fill="#6ae785" opacity="0.62"/><circle cx="327.17" cy="353.17" r="0.71" fill="#84e656" opacity="0.75"/><circle cx="243.30" cy="222.64" r="1.32" fill="#84e656" opacity="0.49"/><circle cx="341.81" cy="422.24" r="1.57" fill="#6ae785" opacity="0.80"/><circle cx="186.80" cy="383.27" r="1.21" fill="#84e656" opacity="0.31"/><circle cx="369.74" cy="321.68" r="0.92" fill="#84e656" opacity="0.61"/><circle cx="404.12" cy="407.91" r="0.91" fill="#6ae785" opacity="0.32"/><circle cx="302.72" cy="388.05" r="0.75" fill="#84e656" opacity="0.65"/><circle cx="320.62" cy="377.71" r="1.20" fill="#84e656" opacity="0.22"/><circle cx="200.88" cy="407.28" r="1.03" fill="#6ae785" opacity="0.70"/><circle cx="282.53" cy="483.63" r="1.52" fill="#84e656" opacity="0.21"/><circle cx="178.55" cy="428.73" r="0.67" fill="#84e656" opacity="0.27"/><circle cx="281.59" cy="229.53" r="1.58" fill="#6ae785" opacity="0.42"/><circle cx="139.83" cy="397.63" r="1.11" fill="#84e656" opacity="0.46"/><circle cx="431.53" cy="378.01" r="0.64" fill="#84e656" opacity="0.67"/><circle cx="365.17" cy="395.41" r="1.42" fill="#6ae785" opacity="0.43"/><circle cx="344.73" cy="245.67" r="1.27" fill="#84e656" opacity="0.23"/><circle cx="130.35" cy="278.39" r="1.51" fill="#84e656" opacity="0.39"/><circle cx="310.85" cy="445.15" r="0.74" fill="#6ae785" opacity="0.58"/><circle cx="211.57" cy="244.10" r="1.16" fill="#84e656" opacity="0.45"/><circle cx="209.90" cy="232.35" r="1.47" fill="#84e656" opacity="0.58"/><circle cx="190.39" cy="390.69" r="0.87" fill="#6ae785" opacity="0.75"/><circle cx="183.17" cy="473.24" r="0.75" fill="#84e656" opacity="0.67"/><circle cx="160.35" cy="441.25" r="0.98" fill="#84e656" opacity="0.35"/><circle cx="84.14" cy="387.95" r="1.26" fill="#6ae785" opacity="0.77"/><circle cx="141.91" cy="475.74" r="1.15" fill="#84e656" opacity="0.36"/><circle cx="250.64" cy="251.42" r="0.89" fill="#84e656" opacity="0.78"/><circle cx="66.42" cy="381.78" r="0.74" fill="#6ae785" opacity="0.76"/><circle cx="188.89" cy="231.16" r="0.81" fill="#84e656" opacity="0.46"/><circle cx="283.19" cy="278.59" r="1.08" fill="#84e656" opacity="0.58"/><circle cx="247.53" cy="501.84" r="0.65" fill="#6ae785" opacity="0.53"/><circle cx="413.26" cy="290.38" r="0.96" fill="#84e656" opacity="0.30"/><circle cx="60.70" cy="350.76" r="1.21" fill="#84e656" opacity="0.57"/><circle cx="205.85" cy="241.37" r="0.64" fill="#6ae785" opacity="0.50"/><circle cx="372.27" cy="400.38" r="0.92" fill="#84e656" opacity="0.66"/><circle cx="339.18" cy="336.47" r="1.61" fill="#84e656" opacity="0.50"/><circle cx="69.36" cy="324.11" r="1.09" fill="#6ae785" opacity="0.42"/><circle cx="420.20" cy="336.18" r="0.99" fill="#84e656" opacity="0.22"/><circle cx="384.30" cy="288.22" r="0.86" fill="#84e656" opacity="0.54"/><text x="28" y="50" fill="#9eb9a8" font-size="13" text-anchor="start" font-weight="400">PROJECT / OPEN SOURCE</text><text x="28" y="117" font-size="46.0" fill="url(#brand)" font-weight="700">AgentBeacon</text><text x="28" y="163.0" fill="#f9fdee" font-size="21" text-anchor="start" font-weight="400">Turn observed browser-run</text><text x="28" y="192.4" fill="#f9fdee" font-size="21" text-anchor="start" font-weight="400">states into notification</text><text x="28" y="221.8" fill="#f9fdee" font-size="21" text-anchor="start" font-weight="400">signals.</text><path d="M126.5 418.0L204.4 341.0L278.5 369.0L360.2 292.0" fill="none" stroke="#84e656" stroke-width="1.5" marker-end="url(#arrow)"/><path d="M126.5 418.0L204.4 341.0L278.5 369.0L360.2 292.0" class="flow" fill="none" stroke="#dff6ac" stroke-width="2"/><circle cx="126.5" cy="418.0" r="12" fill="#dff6ac" opacity=".5" filter="url(#glow)"/><circle class="pulse" cx="126.5" cy="418.0" r="3" fill="#dff6ac"/><circle cx="204.4" cy="341.0" r="12" fill="#dff6ac" opacity=".5" filter="url(#glow)"/><circle class="pulse" cx="204.4" cy="341.0" r="3" fill="#dff6ac"/><circle cx="278.5" cy="369.0" r="12" fill="#dff6ac" opacity=".5" filter="url(#glow)"/><circle class="pulse" cx="278.5" cy="369.0" r="3" fill="#dff6ac"/><circle cx="360.2" cy="292.0" r="12" fill="#dff6ac" opacity=".5" filter="url(#glow)"/><circle class="pulse" cx="360.2" cy="292.0" r="3" fill="#dff6ac"/></svg>
